# xmcd CD database file
#
# Track frame offsets:
#	150
#	28998
#	40264
#	62773
#	87842
#	100672
#	114883
#	172807
#	192692
#	204019
#	276232
#	288894
#	298221
#
# Disc length: 4327 seconds
#
# Revision: 3
# Processed by: cddbd v1.5.2PL0 Copyright (c) Steve Scherf et al.
# Submitted via: CDex 1.51
#
DISCID=b810e50d
DTITLE=Alexandre Scriabine - Jonathan Bénichou ~ Piano Steinway
DYEAR=2009
DGENRE=Piano
TTITLE0=Sonate, Op.23  N°03  en fa dièse mineur - I. Drammatico
TTITLE1=Sonate, Op.23  N°03  en fa dièse mineur - II. Allegretto
TTITLE2=Sonate, Op.23  N°03  en fa dièse mineur - III. Andante
TTITLE3=Sonate, Op.23  N°03  en fa dièse mineur - IV. Presto con fuoco
TTITLE4=Etude,   Op.42  N°04  en fa dièse majeur - Andante  (1903)
TTITLE5=Etude,   Op.42  N°05  en ut dièse mineur - Affanato  (1903)
TTITLE6=Sonate, Op.53  N°05  en fa dièse majeur - Allegro impetuoso ~ Con stravaganza  (1907)
TTITLE7=Etude,   Op.08  N°11  en si bémol  mineur - Andante cantabile  (1894)
TTITLE8=Etude,   Op.08  N°12  en ré dièse mineur - Patetico  (1895)
TTITLE9=Sonate, Op.70  N°10 - Moderato  (1913)
TTITLE10=Etude,   Op.65  N°02 - Allegretto  (1912)
TTITLE11=Etude,   Op.65  N°03 - Molto vivace  (1912)
TTITLE12=Vers la flamme, Op.72 - Allegro moderato  (1914)
EXTD=YEAR: 2009
EXTT0=
EXTT1=
EXTT2=
EXTT3=
EXTT4=
EXTT5=
EXTT6=
EXTT7=
EXTT8=
EXTT9=
EXTT10=
EXTT11=
EXTT12=
PLAYORDER=
